<?xml version="1.0"?>
<svg xmlns="http://www.w3.org/2000/svg" xmlns:xlink="http://www.w3.org/1999/xlink" width="512" height="512" viewBox="0 0 128 128"><defs><linearGradient id="a" x1="111.096" y1="117.449" x2="16.904" y2="23.257" gradientUnits="userSpaceOnUse"><stop offset="0" stop-color="#e57373"/><stop offset="1" stop-color="#f9e0a0"/></linearGradient></defs><path d="M99.563,28.288a1.75,1.75,0,0,1,1.75-1.73h.02c1.344.015,2.68.09,3.969.222a1.751,1.751,0,0,1-.177,3.492c-.06,0-.12,0-.181-.009-1.184-.122-2.413-.192-3.65-.205A1.752,1.752,0,0,1,99.563,28.288Zm27.973,24.647a9.308,9.308,0,0,0-8.269-6.453l-1.24-.082.958-.8A9.383,9.383,0,0,0,117.132,30a1.75,1.75,0,0,0-1.522,3.152,5.884,5.884,0,0,1,1.131,9.764l-4.308,3.6a1.75,1.75,0,0,0,1,3.089l5.6.372a5.877,5.877,0,0,1,4.8,8.567c-3.767,7.019-11.156,13.13-20.275,16.764a1.751,1.751,0,0,0-.7,2.74c.725.878,1.37,1.708,1.972,2.538,6.428,8.871,9.556,19.406,8.368,28.184a5.852,5.852,0,0,1-8.9,4.1l-4.745-3a1.75,1.75,0,0,0-2.631,1.908l1.375,5.45a5.847,5.847,0,0,1-2.233,6.187,5.756,5.756,0,0,1-4.4,1.045c-8.689-1.579-17.715-7.817-24.143-16.686-.7-.968-1.385-1.991-2.035-3.039a1.749,1.749,0,0,0-2.974,0c-.65,1.048-1.334,2.071-2.036,3.038-6.427,8.87-15.453,15.108-24.143,16.687a5.76,5.76,0,0,1-4.4-1.044,5.851,5.851,0,0,1-2.234-6.187l1.376-5.451a1.75,1.75,0,0,0-2.631-1.908l-4.744,3a5.852,5.852,0,0,1-8.9-4.1,1.75,1.75,0,0,0-3.469.47,9.352,9.352,0,0,0,14.239,6.586l1.042-.657-.3,1.2a9.377,9.377,0,0,0,9.06,11.674,8.875,8.875,0,0,0,1.592-.143c9.557-1.736,19.407-8.494,26.351-18.076q.348-.478.689-.973.341.5.688.974c6.945,9.581,16.8,16.339,26.351,18.075a9.362,9.362,0,0,0,10.652-11.532l-.3-1.2,1.043.658a9.351,9.351,0,0,0,14.238-6.587c1.305-9.646-2.061-21.126-9-30.707q-.321-.442-.658-.886c8.885-4.012,16.069-10.283,19.913-17.448A9.347,9.347,0,0,0,127.536,52.935Zm-107.2,25.6a50.7,50.7,0,0,0-7.141,13.8,1.75,1.75,0,0,0,3.323,1.1,47.179,47.179,0,0,1,6.652-12.85c.6-.831,1.247-1.661,1.972-2.539a1.75,1.75,0,0,0-.7-2.74C15.319,71.672,7.93,65.561,4.163,58.542a5.878,5.878,0,0,1,4.8-8.567l5.6-.372a1.75,1.75,0,0,0,1.006-3.089l-4.308-3.6a5.883,5.883,0,0,1,1.132-9.764c7.225-3.493,16.868-4.059,26.459-1.554a1.751,1.751,0,0,0,2.189-1.59c.588-9.92,4.106-18.943,9.653-24.757a5.844,5.844,0,0,1,9.6,1.936l2.083,5.221a1.749,1.749,0,0,0,3.25,0l2.083-5.221a5.844,5.844,0,0,1,9.6-1.936c5.546,5.814,9.065,14.837,9.653,24.757a1.75,1.75,0,0,0,3.494-.207c-.637-10.734-4.5-20.563-10.614-26.966A9.343,9.343,0,0,0,64.458,5.889L64,7.035l-.458-1.146A9.343,9.343,0,0,0,48.159,2.833c-5.713,5.988-9.467,14.972-10.45,24.891C28,25.6,18.312,26.4,10.868,30A9.383,9.383,0,0,0,9.015,45.6l.958.8-1.24.082A9.377,9.377,0,0,0,1.079,60.2c3.844,7.165,11.028,13.436,19.913,17.448Q20.655,78.088,20.334,78.53ZM91.683,49.022A8.047,8.047,0,1,1,81.1,60.283L66.831,64.92l8.821,12.14a8.045,8.045,0,1,1,3.215,15.429,8.213,8.213,0,0,1-1.275-.1,8.044,8.044,0,0,1-4.771-13.27L64,66.977,55.179,79.119a8.044,8.044,0,0,1-4.771,13.27,8.2,8.2,0,0,1-1.275.1,8.047,8.047,0,1,1,3.215-15.428L61.169,64.92,46.9,60.283a8.05,8.05,0,0,1-6.917,3.96,8.071,8.071,0,0,1-7.178-4.4,8.047,8.047,0,1,1,15.176-2.891L62.25,61.592V46.584a8.047,8.047,0,1,1,3.5,0V61.592l14.273-4.637a8.044,8.044,0,0,1,11.66-7.933ZM64,43.281a4.547,4.547,0,1,0-4.547-4.547A4.552,4.552,0,0,0,64,43.281ZM44.3,57.6a4.549,4.549,0,0,0-2.919-5.73,4.571,4.571,0,0,0-1.41-.224A4.547,4.547,0,1,0,44.3,57.6Zm7.527,23.165a4.507,4.507,0,0,0-2.664-.87,4.637,4.637,0,0,0-.721.056,4.548,4.548,0,1,0,3.385.814Zm24.357,0a4.543,4.543,0,1,0,3.383-.814,4.624,4.624,0,0,0-.72-.056A4.5,4.5,0,0,0,76.179,80.763ZM88.034,51.644a4.566,4.566,0,0,0-1.41.224,4.526,4.526,0,1,0,1.41-.224Z" fill="url(#a)"/></svg>
